#!OML:ASF E:\acrobat2\Project_11_07_03\Capture day 1\Session 1\Acrobat.ASF
:FULLY-SPECIFIED
:DEGREES
278
root 9.52514 16.0732 -10.8154 23.5443 5.29265 5.73816
lowerback 36.5551 -0.58035 2.79895
upperback 18.5137 0.315018 -0.0955957
thorax 2.14506 0.479575 -1.64809
lowerneck 1.65891 -1.58886 -2.14194
upperneck -9.28106 -2.2017 0.721484
head -3.23117 -1.05617 0.678285
rclavicle 1.43125e-014 -1.09332e-014
rhumerus 39.1234 15.9886 -59.9334
rradius 26.8682
rwrist -7.81926
rhand -8.32838 -30.899
rfingers 7.12502
rthumb 17.5929 -60.123
lclavicle 1.43125e-014 -1.09332e-014
lhumerus 63.4021 -33.1364 48.4685
lradius 26.6506
lwrist 15.6921
lhand -6.10325 -11.1457
lfingers 7.12502
lthumb 19.7331 17.8726
rfemur -56.8162 -2.57324 9.65081
rtibia 70.0555
rfoot -31.4965 -8.97477
rtoes -10.162
lfemur -69.7409 0.669293 -28.8466
ltibia 59.1189
lfoot -0.93055 -10.8662
ltoes 35.8215
279
root 9.5561 16.1313 -10.7871 23.6315 5.25436 5.63211
lowerback 36.347 -0.600714 2.74481
upperback 18.4319 0.265224 -0.107145
thorax 2.11863 0.447854 -1.61823
lowerneck 1.71393 -1.60038 -2.18961
upperneck -9.65105 -2.22623 0.690292
head -3.36907 -1.06311 0.682119
rclavicle 6.36111e-015 1.78906e-014
rhumerus 38.6857 16.0468 -60.2918
rradius 26.674
rwrist -7.68377
rhand -8.36592 -30.7137
rfingers 7.12502
rthumb 17.5567 -59.941
lclavicle 6.36111e-015 1.78906e-014
lhumerus 62.7169 -33.0643 48.6665
lradius 26.1612
lwrist 15.6218
lhand -6.3072 -10.8256
lfingers 7.12502
lthumb 19.537 18.2128
rfemur -56.4767 -2.67032 9.65973
rtibia 69.3986
rfoot -31.1368 -8.78153
rtoes -9.83261
lfemur -69.413 0.638706 -28.7857
ltibia 58.6763
lfoot -0.904289 -10.7398
ltoes 35.8205
280
root 9.58463 16.1933 -10.7593 23.696 5.22582 5.52193
lowerback 36.145 -0.615526 2.68711
upperback 18.3744 0.221812 -0.112802
thorax 2.11795 0.419519 -1.58212
lowerneck 1.73164 -1.61348 -2.20475
upperneck -10.019 -2.25206 0.645655
head -3.50042 -1.07115 0.675431
rclavicle -1.59028e-015 -8.54774e-015
rhumerus 38.256 16.0878 -60.6227
rradius 26.526
rwrist -7.59286
rhand -8.37398 -30.5873
rfingers 7.12502
rthumb 17.549 -59.8153
lclavicle -1.59028e-015 -8.54774e-015
lhumerus 62.0395 -32.9718 48.8247
lradius 25.7516
lwrist 15.5058
lhand -6.40675 -10.5122
lfingers 7.12502
lthumb 19.4413 18.5359
rfemur -56.067 -2.74128 9.6696
rtibia 68.6556
rfoot -30.7648 -8.61167
rtoes -9.55459
lfemur -69.0186 0.620052 -28.7013
ltibia 58.1554
lfoot -0.82239 -10.5953
ltoes 35.9893
281
root 9.61188 16.2579 -10.7331 23.7734 5.19044 5.3934
lowerback 35.9088 -0.621187 2.64257
upperback 18.3323 0.191749 -0.118994
thorax 2.14675 0.399213 -1.55739
lowerneck 1.73172 -1.63029 -2.16268
upperneck -10.4067 -2.28439 0.556694
head -3.63706 -1.08251 0.644386
rclavicle 2.70347e-014 9.14409e-015
rhumerus 37.8401 16.1313 -60.8886
rradius 26.4218
rwrist -7.58063
rhand -8.30346 -30.5365
rfingers 7.12502
rthumb 17.6168 -59.7584
lclavicle 2.70347e-014 9.14409e-015
lhumerus 61.3354 -32.8556 49.0106
lradius 25.4115
lwrist 15.3362
lhand -6.32571 -10.2464
lfingers 7.12502
lthumb 19.5192 18.7938
rfemur -55.6566 -2.78022 9.68714
rtibia 67.8642
rfoot -30.3987 -8.4341
rtoes -9.31571
lfemur -68.621 0.611491 -28.581
ltibia 57.5806
lfoot -0.693412 -10.422
ltoes 36.2678
282
root 9.63807 16.324 -10.7089 23.8612 5.13346 5.24967
lowerback 35.6431 -0.61064 2.599
upperback 18.2965 0.179916 -0.12647
thorax 2.19373 0.388076 -1.53989
lowerneck 1.71696 -1.64986 -2.08179
upperneck -10.7855 -2.32092 0.44474
head -3.76926 -1.09651 0.598684
rclavicle -2.22639e-014 -7.15625e-015
rhumerus 37.4155 16.1693 -61.1113
rradius 26.3551
rwrist -7.61697
rhand -8.14918 -30.5409
rfingers 7.12502
rthumb 17.7653 -59.7494
lclavicle -2.22639e-014 -7.15625e-015
lhumerus 60.6453 -32.7433 49.1262
lradius 25.1512
lwrist 15.2027
lhand -6.06035 -10.0248
lfingers 7.12502
lthumb 19.7743 18.9894
rfemur -55.2528 -2.77786 9.70403
rtibia 67.0372
rfoot -30.0618 -8.21797
rtoes -9.17942
lfemur -68.2196 0.615374 -28.4308
ltibia 56.9519
lfoot -0.534926 -10.2168
ltoes 36.5811
283
root 9.66328 16.3913 -10.686 23.932 5.05228 5.10147
lowerback 35.3826 -0.583644 2.54054
upperback 18.2574 0.183634 -0.130852
thorax 2.23651 0.382994 -1.5158
lowerneck 1.70742 -1.67018 -1.99733
upperneck -11.1396 -2.3584 0.337278
head -3.89462 -1.11143 0.55348
rclavicle 1.59028e-015 5.56597e-015
rhumerus 36.9553 16.1957 -61.3294
rradius 26.3108
rwrist -7.66019
rhand -7.95768 -30.5607
rfingers 7.12502
rthumb 17.9496 -59.7524
lclavicle 1.59028e-015 5.56597e-015
lhumerus 60.025 -32.6713 49.0454
lradius 24.98
lwrist 15.1852
lhand -5.66942 -9.83338
lfingers 7.12502
lthumb 20.1501 19.1416
rfemur -54.8192 -2.73762 9.70879
rtibia 66.1705
rfoot -29.7561 -7.9498
rtoes -9.14302
lfemur -67.7791 0.630612 -28.2664
ltibia 56.2689
lfoot -0.379996 -9.99545
ltoes 36.8129
284
root 9.68781 16.4591 -10.6636 23.9679 4.94898 4.95522
lowerback 35.1506 -0.545272 2.46427
upperback 18.2048 0.19703 -0.132015
thorax 2.25562 0.380574 -1.4817
lowerneck 1.72977 -1.68589 -1.93367
upperneck -11.4756 -2.38943 0.252587
head -4.02024 -1.12326 0.519275
rclavicle -1.59028e-014 -2.98177e-015
rhumerus 36.446 16.2115 -61.5717
rradius 26.2659
rwrist -7.67946
rhand -7.76904 -30.5726
rfingers 7.12502
rthumb 18.1311 -59.7476
lclavicle -1.59028e-014 -2.98177e-015
lhumerus 59.5215 -32.6868 48.6556
lradius 24.8989
lwrist 15.3371
lhand -5.25054 -9.66533
lfingers 7.12502
lthumb 20.5527 19.2667
rfemur -54.3299 -2.66977 9.69778
rtibia 65.2684
rfoot -29.4686 -7.62025
rtoes -9.07683
lfemur -67.2776 0.657406 -28.1029
ltibia 55.5376
lfoot -0.251505 -9.77722
ltoes 36.8741
285
root 9.7114 16.527 -10.6418 23.9725 4.81453 4.82614
lowerback 34.9321 -0.486655 2.34068
upperback 18.1435 0.222341 -0.12584
thorax 2.26109 0.379671 -1.4184
lowerneck 1.81966 -1.69106 -1.88344
upperneck -11.8366 -2.40896 0.167988
head -4.16907 -1.12828 0.488001
rclavicle -1.03368e-014 1.27222e-014
rhumerus 35.8854 16.2053 -61.8619
rradius 26.215
rwrist -7.63673
rhand -7.60511 -30.5888
rfingers 7.12502
rthumb 18.2888 -59.7491
lclavicle -1.03368e-014 1.27222e-014
lhumerus 59.1839 -32.8244 47.8783
lradius 24.9052
lwrist 15.6881
lhand -4.83976 -9.4452
lfingers 7.12502
lthumb 20.9474 19.4437
rfemur -53.799 -2.58241 9.65789
rtibia 64.3583
rfoot -29.1843 -7.23593
rtoes -8.91823
lfemur -66.7261 0.699616 -27.9624
ltibia 54.775
lfoot -0.161763 -9.56873
ltoes 36.7133
286
root 9.73334 16.5946 -10.6211 23.9548 4.64222 4.72037
lowerback 34.7207 -0.403364 2.15427
upperback 18.0756 0.260618 -0.114547
thorax 2.257 0.379916 -1.32029
lowerneck 1.96351 -1.67793 -1.86614
upperneck -12.2297 -2.4059 0.0957236
head -4.34112 -1.12044 0.466503
rclavicle 4.77083e-015 -1.53064e-014
rhumerus 35.2673 16.1713 -62.2149
rradius 26.1742
rwrist -7.51987
rhand -7.47447 -30.5947
rfingers 7.12502
rthumb 18.4144 -59.7431
lclavicle 4.77083e-015 -1.53064e-014
lhumerus 58.9953 -33.0812 46.7504
lradius 25.0009
lwrist 16.1873
lhand -4.67886 -9.32004
lfingers 7.12502
lthumb 21.1019 19.5517
rfemur -53.2493 -2.47974 9.5909
rtibia 63.471
rfoot -28.8872 -6.84451
rtoes -8.6903
lfemur -66.1465 0.763965 -27.8511
ltibia 54.0013
lfoot -0.109197 -9.3704
ltoes 36.3719
287
root 9.75336 16.6611 -10.6023 23.935 4.45816 4.63846
lowerback 34.4913 -0.310484 1.92813
upperback 18.0055 0.30021 -0.101625
thorax 2.25674 0.377959 -1.19972
lowerneck 2.11002 -1.64685 -1.90141
upperneck -12.6215 -2.37737 0.0623085
head -4.51383 -1.09897 0.465966
rclavicle 1.11319e-014 5.1684e-015
rhumerus 34.6014 16.1017 -62.627
rradius 26.1563
rwrist -7.34262
rhand -7.36358 -30.5682
rfingers 7.12502
rthumb 18.5211 -59.7065
lclavicle 1.11319e-014 5.1684e-015
lhumerus 58.8543 -33.4092 45.4669
lradius 25.1745
lwrist 16.6647
lhand -4.74839 -9.29236
lfingers 7.12502
lthumb 21.0351 19.5868
rfemur -52.7121 -2.38963 9.51486
rtibia 62.6442
rfoot -28.585 -6.5036
rtoes -8.48458
lfemur -65.5761 0.824793 -27.7573
ltibia 53.2413
lfoot -0.0833689 -9.17696
ltoes 35.9616
288
root 9.771 16.7262 -10.5862 23.9217 4.26527 4.55613
lowerback 34.2265 -0.209595 1.68782
upperback 17.9402 0.345852 -0.0906605
thorax 2.27455 0.37833 -1.07507
lowerneck 2.22903 -1.60704 -1.94238
upperneck -12.9961 -2.33725 0.0242048
head -4.67622 -1.0711 0.463583
rclavicle -4.77083e-015 2.98177e-015
rhumerus 33.9047 15.9968 -63.0884
rradius 26.1595
rwrist -7.13382
rhand -7.26709 -30.516
rfingers 7.12502
rthumb 18.6139 -59.6454
lclavicle -4.77083e-015 2.98177e-015
lhumerus 58.6044 -33.7431 44.3314
lradius 25.382
lwrist 16.9071
lhand -5.02316 -9.4068
lfingers 7.12502
lthumb 20.7712 19.5015
rfemur -52.2154 -2.30277 9.46615
rtibia 61.9154
rfoot -28.2895 -6.22879
rtoes -8.4206
lfemur -65.0423 0.897163 -27.6574
ltibia 52.5147
lfoot -0.0749312 -8.98399
ltoes 35.5608
289
root 9.78656 16.7889 -10.5724 23.9103 4.07447 4.43842
lowerback 33.9361 -0.105471 1.47414
upperback 17.8677 0.403222 -0.0777075
thorax 2.29463 0.38614 -0.965159
lowerneck 2.32639 -1.56889 -1.95198
upperneck -13.3505 -2.30223 -0.0568953
head -4.8288 -1.04507 0.440551
rclavicle 5.56597e-015 -3.97569e-016
rhumerus 33.1752 15.891 -63.5587
rradius 26.1759
rwrist -6.96275
rhand -7.18161 -30.4563
rfingers 7.12502
rthumb 18.6961 -59.5779
lclavicle 5.56597e-015 -3.97569e-016
lhumerus 58.1129 -34.0536 43.5751
lradius 25.5852
lwrist 16.8467
lhand -5.28242 -9.64542
lfingers 7.12502
lthumb 20.522 19.2899
rfemur -51.7515 -2.21178 9.49089
rtibia 61.2945
rfoot -28.0101 -5.99653
rtoes -8.53475
lfemur -64.5423 0.996232 -27.5215
ltibia 51.8161
lfoot -0.0643624 -8.7921
ltoes 35.239
290
root 9.80114 16.8491 -10.5592 23.8789 3.92864 4.28276
lowerback 33.6282 -0.0286047 1.33645
upperback 17.7943 0.449447 -0.0663483
thorax 2.32137 0.394435 -0.893363
lowerneck 2.41639 -1.54051 -1.94816
upperneck -13.6957 -2.2806 -0.142685
head -4.97763 -1.02603 0.413663
rclavicle 1.19271e-014 -1.05356e-014
rhumerus 32.4296 15.7962 -64.0208
rradius 26.1907
rwrist -6.86983
rhand -7.12369 -30.3857
rfingers 7.12502
rthumb 18.7519 -59.5018
lclavicle 1.19271e-014 -1.05356e-014
lhumerus 57.3707 -34.3216 43.1992
lradius 25.781
lwrist 16.5796
lhand -5.27491 -9.95223
lfingers 7.12502
lthumb 20.5293 18.9823
rfemur -51.263 -2.14812 9.60164
rtibia 60.7639
rfoot -27.7678 -5.77634
rtoes -8.83892
lfemur -64.032 1.09079 -27.3461
ltibia 51.1191
lfoot -0.0297714 -8.6055
ltoes 35.0048
291
root 9.81546 16.9064 -10.546 23.8187 3.84804 4.10088
lowerback 33.3091 0.00916822 1.28356
upperback 17.7215 0.472534 -0.0547181
thorax 2.3541 0.398033 -0.859309
lowerneck 2.48204 -1.51974 -1.91615
upperneck -14.413 -2.26783 -0.226997
head -4.7093 -1.01249 0.35523
rclavicle -1.59028e-015 -1.39149e-015
rhumerus 31.6667 15.7178 -64.4719
rradius 26.199
rwrist -6.86487
rhand -7.12903 -30.2878
rfingers 7.12502
rthumb 18.7467 -59.4045
lclavicle -1.59028e-015 -1.39149e-015
lhumerus 56.4094 -34.5359 43.163
lradius 25.9637
lwrist 16.1833
lhand -4.88534 -10.2686
lfingers 7.12502
lthumb 20.9036 18.6251
rfemur -50.7213 -2.13493 9.78647
rtibia 60.3041
rfoot -27.5663 -5.56537
rtoes -9.33122
lfemur -63.4872 1.1677 -27.1502
ltibia 50.3997
lfoot 0.0459541 -8.43327
ltoes 34.7903
292
root 9.82945 16.9609 -10.5325 23.7248 3.82695 3.91166
lowerback 32.9854 0.0184608 1.28913
upperback 17.6482 0.477917 -0.0384217
thorax 2.38932 0.397414 -0.846282
lowerneck 2.54154 -1.50161 -1.8683
upperneck -14.7333 -2.25804 -0.320539
head -4.81957 -1.00098 0.320677
rclavicle 2.22639e-014 -1.98785e-015
rhumerus 30.8783 15.6658 -64.8879
rradius 26.2087
rwrist -6.96495
rhand -7.2252 -30.167
rfingers 7.12502
rthumb 18.6542 -59.2925
lclavicle 2.22639e-014 -1.98785e-015
lhumerus 55.2932 -34.7052 43.3926
lradius 26.1279
lwrist 15.7284
lhand -4.21357 -10.564
lfingers 7.12502
lthumb 21.5489 18.2572
rfemur -50.1167 -2.17597 10.0194
rtibia 59.9126
rfoot -27.3997 -5.37519
rtoes -9.92057
lfemur -62.8908 1.23109 -26.9572
ltibia 49.6409
lfoot 0.171161 -8.28026
ltoes 34.4895
